<svg id="Capa_1" enable-background="new 0 0 512 512" height="512" viewBox="0 0 512 512" width="512" xmlns="http://www.w3.org/2000/svg"><path d="m394.042 412.924c-4.14.155-7.369 3.636-7.214 7.775 1.048 28.157-12.176 56.283-27.468 68.313-4.633 3.645-12.87 7.988-25.798 7.988-26.523 0-62.474-19.431-76.94-20.636-.415-.034-.831-.034-1.244 0-5.069.422-15.241 3.985-27.035 8.25-16.836 6.088-34.246 12.384-49.907 12.386-12.929 0-21.165-4.343-25.796-7.987-15.696-12.348-27.27-39.194-27.522-63.835-.265-25.968 11.53-53.61 28.045-65.725 4.375-3.209 11.989-7.036 23.414-7.036 16.295 0 34.151 7.873 51.432 15.493 7.262 3.202 24.38 11.05 29.26 10.215 16.481-2.83 51.115-25.708 78.154-25.708 11.425 0 19.039 3.826 23.414 7.036 5.854 4.295 11.234 10.589 15.698 18.258.018.029.034.059.053.088 2.047 3.526 3.9 7.342 5.516 11.387 1.537 3.847 5.901 5.72 9.747 4.183 3.847-1.537 5.719-5.9 4.183-9.747-1.645-4.117-3.52-8.043-5.581-11.748l2.026-78.074c9.81-11.523 14.55-25.329 12.475-39.738-1.276-8.864-5.002-16.932-10.829-23.824l1.724-66.613c.217-8.413-1.754-16.519-5.644-23.707 7.961-33.91 5.331-62.791 2.991-77.217-5.604-34.552-16.299-41.403-20.634-42.745-4.762-1.476-15.809-1.005-36.298 18.712-10.856 10.447-21.049 23.354-29.681 37.428-4.448-16.943-10.087-30.175-14.122-38.43-4.321-8.835-19.57-37.666-34.461-37.666-5.079 0-15.726 3.781-29.976 29.102-2.031 3.609-.752 8.183 2.858 10.214 3.609 2.03 8.183.753 10.214-2.858 7.812-13.881 14.382-20.062 16.899-21.311 3.024 1.528 12.298 10.537 22.145 31.523 5.801 12.363 15.405 36.958 17.906 68.34h-12.133c-1.975-23.857-13.314-41.04-27.913-41.04s-25.938 17.183-27.913 41.04h-12.144c1.302-16.409 4.625-32.364 9.686-47.619 1.304-3.931-.826-8.176-4.757-9.48-3.932-1.302-8.175.826-9.48 4.757-1.474 4.443-2.795 8.919-3.978 13.419-8.631-14.071-18.822-26.974-29.675-37.419-20.49-19.719-31.537-20.188-36.294-18.713-4.339 1.342-15.034 8.194-20.638 42.746-2.34 14.426-4.97 43.307 2.991 77.217-3.89 7.188-5.862 15.294-5.644 23.707l1.723 66.613c-5.827 6.893-9.553 14.96-10.829 23.824-2.074 14.409 2.665 28.216 12.476 39.739l2.029 78.212c-8.554 15.507-13.625 34.619-13.434 53.319.299 29.271 13.97 60.306 33.247 75.471 6.494 5.109 17.85 11.199 35.072 11.198 18.291-.002 36.957-6.752 55.011-13.282 5.583-2.019 18.271-6.607 22.551-7.325 14.424 2.417 48.615 20.606 77.562 20.606 17.221 0 28.577-6.09 35.072-11.199 21.318-16.771 34.292-51.036 33.183-80.663-.155-4.139-3.649-7.384-7.775-7.214zm-58.621-75.507c-19.454 0-38.78 8.521-57.491 16.771-6.11 2.693-17.01 7.499-21.929 8.857-4.98-1.382-16.261-6.355-21.955-8.866-18.689-8.241-38.015-16.762-57.471-16.762-15.485 0-26.104 5.406-32.286 9.941-2.154 1.58-4.232 3.36-6.235 5.298l-1.177-45.379c11.837 7.897 26.825 13.6 43.884 16.057 4.052.583 7.999.932 11.8 1.06.958 1.509 2.076 2.932 3.349 4.249 5.016 5.186 11.75 8.042 18.964 8.042h9.565c1.814 0 3.49.994 4.17 2.474 4.905 10.668 15.656 17.562 27.391 17.562s22.486-6.894 27.391-17.562c.68-1.48 2.356-2.474 4.17-2.474h9.565c7.213 0 13.948-2.856 18.964-8.042 1.273-1.317 2.391-2.74 3.349-4.249 3.801-.127 7.748-.476 11.8-1.06 17.059-2.456 32.047-8.159 43.884-16.057l-1.178 45.368c-2.014-1.943-4.096-3.716-6.238-5.287-6.181-4.535-16.801-9.941-32.286-9.941zm-202.274-174.181c-.469-18.123 14.054-33.227 32.382-33.227h180.94c18.255 0 32.854 15.031 32.382 33.227l-.36 13.908c-39.925-21.531-67.102-16.72-88.378-6.63-5.62-11.082-14.458-20.178-21.536-26.283-7.171-6.203-17.987-6.203-25.148-.007-7.086 6.111-15.925 15.208-21.545 26.29-21.275-10.089-48.451-14.902-88.378 6.63zm28.182-48.034c.181-8.486 2.72-13.718 5.118-14.46 3.277-1.017 10.113 4.169 15.649 14.268h-16.566c-1.412 0-2.812.072-4.201.192zm185.141-.192h-16.565c5.537-10.099 12.376-15.285 15.655-14.266 2.392.741 4.93 5.972 5.111 14.458-1.389-.12-2.789-.192-4.201-.192zm-22.996 194.108c-.095-2.128-.453-4.195-1.046-6.169 1.885-.151 3.81-.362 5.781-.646 15.058-2.168 28.822-7.594 38.757-15.28 11.176-8.647 16.485-19.277 14.948-29.929-1.531-10.661-9.624-19.364-22.788-24.505-11.698-4.568-26.434-5.891-41.495-3.722-15.209 2.189-26.632 7.36-33.951 15.369-.976 1.068-1.863 2.183-2.677 3.332l-2.54-6.81c8.164-9.401 21.288-15.628 38.277-18.074 18.525-2.669 36.098-.46 49.485 6.224 12.473 6.229 20.244 15.921 21.881 27.292 1.505 10.454-2.282 20.542-9.997 29.089-1.558 1.362-14.92 18.29-49.008 23.199-1.914.274-3.784.472-5.627.63zm-140.575-.631c-20.544-2.958-37.47-11.157-47.917-22.027-1.109-1.497-13.579-12.967-11.089-30.262 1.637-11.37 9.408-21.063 21.881-27.291 13.387-6.685 30.962-8.896 49.487-6.224 16.987 2.446 30.112 8.674 38.276 18.074l-2.54 6.81c-.814-1.149-1.701-2.264-2.677-3.332-7.319-8.008-18.742-13.179-33.951-15.369-15.06-2.168-29.796-.847-41.495 3.722-13.165 5.141-21.257 13.844-22.788 24.5-1.537 10.657 3.771 21.287 14.948 29.934 9.935 7.686 23.699 13.112 38.756 15.28 1.971.284 3.897.495 5.782.646-.594 1.974-.951 4.041-1.047 6.169-1.842-.157-3.712-.355-5.626-.63zm38.838-38.197c-.883 6.126-3.716 10.72-8.382 13.717-4.381.329-8.497 1.72-12.072 3.911-4.503.51-9.656.36-15.354-.461-12.535-1.805-23.798-6.172-31.716-12.297-6.619-5.121-10.001-10.926-9.279-15.933 2.78-19.354 56.602-22.062 72.314-4.871 3.889 4.254 5.399 9.615 4.489 15.934zm-6.367 28.633c.197 0 .391-.016.588-.023l.087-.003c7.197-.274 13.643-4.887 16.174-11.672l23.781-63.774 23.782 63.774c2.53 6.784 8.974 11.396 16.169 11.672.032.002.064.002.096.004.194.006.387.023.583.023 6.342 0 11.667 4.928 11.87 10.984.086 2.591-.78 4.599-.752 4.499-1.606 4.161-5.675 7.278-10.622 7.278h-9.565c-7.682 0-14.668 4.399-17.799 11.208-2.465 5.363-7.867 8.828-13.762 8.828s-11.296-3.465-13.762-8.828c-3.13-6.809-10.117-11.208-17.799-11.208-6.881-.544-12.747 1.699-17.747-3.47-7.092-7.335-1.657-19.292 8.678-19.292zm95.347-11.006c-3.576-2.191-7.691-3.581-12.072-3.91-4.666-2.997-7.498-7.591-8.382-13.716-.91-6.32.6-11.681 4.489-15.936 15.882-17.376 69.549-14.385 72.314 4.876.722 5.002-2.661 10.808-9.28 15.928-7.917 6.125-19.181 10.493-31.716 12.297-5.697.821-10.849.971-15.353.461zm-73.643-109.092c-.655-.387-1.317-.777-1.986-1.17 4.802-9.645 13.112-17.736 18.147-22.078 1.602-1.387 3.927-1.387 5.539.007 5.028 4.336 13.337 12.426 18.139 22.07-.669.393-1.331.784-1.986 1.17-18.558 10.954-19.277 10.965-37.853.001zm-103.127 15.321c42.253-25.214 67.319-18.188 88.087-6.687 2.554 1.415 5.017 2.87 7.397 4.274 23.289 13.749 29.803 13.777 53.139 0 2.38-1.405 4.841-2.858 7.395-4.273 20.768-11.501 45.833-18.528 88.088 6.687l-.617 23.828c-1.455-.867-2.946-1.706-4.51-2.487-16.094-8.036-36.807-10.754-58.326-7.651-12.741 1.834-29.164 6.407-41.893 17.488l-3.556-9.536c-4.534-12.152-21.759-12.183-26.304 0l-3.556 9.535c-12.729-11.081-29.152-15.653-41.892-17.488-21.518-3.103-42.233-.385-58.327 7.651-1.564.781-3.055 1.62-4.51 2.487zm175.288-95.561c16.214-32.475 43.275-60.578 56.877-64.07 2.509 2.627 7.802 13.228 10.695 33.329 2.646 18.383 2.282 38.31-.948 57.385-3.162-2.512-6.595-4.588-10.234-6.196.779-16.828-5.067-29.346-15.62-32.615-13.179-4.096-28.101 7.778-36.722 28.592h-2.187c-.419-5.687-1.059-11.167-1.861-16.425zm-53.235-9.615c4.579 0 11.195 10.129 12.838 26.04h-25.676c1.643-15.911 8.259-26.04 12.838-26.04zm-120.808-21.126c2.894-20.101 8.187-30.701 10.695-33.329 2.094.538 9.836 3.325 23.297 16.773 12.881 12.868 24.738 29.589 33.573 47.281-.832 5.464-1.456 10.947-1.861 16.44h-2.18c-8.621-20.814-23.543-32.69-36.715-28.594-10.559 3.271-16.405 15.789-15.626 32.617-3.639 1.608-7.072 3.684-10.234 6.196-3.23-19.075-3.595-39.001-.949-57.384z"/><path d="m374.209 424.17c.072-22.905-10.322-47.842-24.188-58.014-22.89-16.792-71.702 21.575-94.022 21.575-7.809 0-21.284-5.941-34.315-11.687-17.952-7.915-44.877-20.766-59.706-9.888-13.82 10.137-24.109 34.893-24.179 57.929 0 .03-.005.059-.005.089 0 .026.004.051.004.076 0 .287-.006.575-.003.861.227 22.172 10.537 46.867 23.981 57.443 4.524 3.559 10.203 4.979 16.624 4.979 24.119 0 60.845-20.643 77.599-20.643 22.173 0 72.493 32.76 94.223 15.664 13.593-10.693 23.905-35.78 23.987-58.353zm-33.061-45.92c7.651 5.613 15.799 21.15 17.665 38.423h-34.466v-37.903c7.366-2.134 13.618-2.855 16.801-.52zm-44.783 11.52c4.059-1.79 8.501-3.747 12.982-5.587v32.491h-45.849v-14.768c9.643-1.908 20.992-6.901 32.867-12.136zm-47.866 12.136v14.768h-45.85v-32.492c4.481 1.84 8.923 3.798 12.983 5.588 11.875 5.235 23.224 10.228 32.867 12.136zm-77.65-23.656c3.184-2.335 9.435-1.615 16.8.519v37.904h-34.428c1.917-17.339 9.983-32.815 17.628-38.423zm.201 92.514c-7.635-6.005-15.897-21.931-17.833-39.091h34.432v39.799c-7.337 1.525-13.487 1.74-16.599-.708zm46.805-8.765c-4.739 1.714-9.974 3.607-15.206 5.314v-35.639h45.85v20.942c-8.951 1.545-19.557 5.373-30.644 9.383zm45.644-9.384v-20.942h45.849v35.639c-5.231-1.707-10.466-3.6-15.205-5.314-11.088-4.009-21.694-7.837-30.644-9.383zm77.448 18.15c-3.112 2.448-9.262 2.233-16.6.708v-39.799h34.405c-1.993 17.235-10.18 33.092-17.805 39.091z"/></svg>